{"title":"There Will Be Blood [2007] BRRip XviD - CODY","uid":8445107,"size":1182576574,"categoryP":"video","categoryS":"movies","magnet":"?xt=urn:btih:922c357875f3cafd0a4bb69d2f54e8c841325123&amp;dn=There+Will+Be+Blood+%5B2007%5D+BRRip+XviD+-+CODY&amp;tr=udp%3A%2F%2Ftracker.openbittorrent.com%3A80&amp;tr=udp%3A%2F%2Fopen.demonii.com%3A1337&amp;tr=udp%3A%2F%2Ftracker.coppersurfer.tk%3A6969&amp;tr=udp%3A%2F%2Fexodus.desync.com%3A6969","seeders":0,"leechers":0,"uploader":"CODYBOSS1969","files":5,"time":1367868544,"description":"General\nComplete name                            : There Will Be Blood [2007] BRRRip XviD - CODY.avi\nFormat                                   : AVI\nFormat/Info                              : Audio Video Interleave\nFile size                                : 1.10 GiB\nDuration                                 : 2h 38mn\nOverall bit rate                         : 995 Kbps\nWriting application                      : VirtualDubMod 1.5.10.3 | www.virtualdub-fr.org || (build 2550/release)\nWriting library                          : VirtualDubMod build 2550/release\n\nVideo\nID                                       : 0\nFormat                                   : MPEG-4 Visual\nFormat profile                           : Advanced Simple@L5\nFormat settings, BVOP                    : 4\nFormat settings, QPel                    : No\nFormat settings, GMC                     : No warppoints\nFormat settings, Matrix                  : Default (H.263)\nCodec ID                                 : XVID\nCodec ID/Hint                            : XviD\nDuration                                 : 2h 38mn\nBit rate                                 : 858 Kbps\nWidth                                    : 720 pixels\nHeight                                   : 304 pixels\nDisplay aspect ratio                     : 2.35:1\nFrame rate                               : 23.976 fps\nColor space                              : YUV\nChroma subsampling                       : 4:2:0\nBit depth                                : 8 bits\nScan type                                : Progressive\nCompression mode                         : Lossy\nBits/(Pixel*Frame)                       : 0.163\nStream size                              : 972 MiB (86%)\nWriting library                          : XviD 65\n\nAudio\nID                                       : 1\nFormat                                   : MPEG Audio\nFormat version                           : Version 1\nFormat profile                           : Layer 3\nCodec ID                                 : 55\nCodec ID/Hint                            : MP3\nDuration                                 : 2h 38mn\nBit rate mode                            : Constant\nBit rate                                 : 128 Kbps\nChannel(s)                               : 2 channels\nSampling rate                            : 48.0 KHz\nCompression mode                         : Lossy\nStream size                              : 145 MiB (13%)\nAlignment                                : Aligned on interleaves\nInterleave, duration                     : 42 ms (1.00 video frame)\nInterleave, preload duration             : 504 ms\nWriting library                          : LAME3.99r\nEncoding settings                        : -m s -V 4 -q 2 -lowpass 17 -b 128\n\nAudio language                           : English\n\nIMDB link:                                &lt;a href=&quot; http://www.imdb.com/title/tt0469494/&quot; rel=&quot;nofollow&quot; target=&quot;_NEW&quot;&gt; http://www.imdb.com/title/tt0469494/&lt;/a&gt;\n\nSubtitles included                       : Romanian\n\nPlease seed at least 1,5:1 . This way this torrent has a chance to survive !\n\nThanks . Enjoy !!\t\n\t\t\t\t","torrent":{"xt":"urn:btih:922c357875f3cafd0a4bb69d2f54e8c841325123","amp;dn":"There+Will+Be+Blood+%5B2007%5D+BRRip+XviD+-+CODY","amp;tr":["udp%3A%2F%2Ftracker.openbittorrent.com%3A80","udp%3A%2F%2Fopen.demonii.com%3A1337","udp%3A%2F%2Ftracker.coppersurfer.tk%3A6969","udp%3A%2F%2Fexodus.desync.com%3A6969"],"infoHash":"922c357875f3cafd0a4bb69d2f54e8c841325123","infoHashBuffer":{"type":"Buffer","data":[146,44,53,120,117,243,202,253,10,75,182,157,47,84,232,200,65,50,81,35]},"announce":[],"urlList":[]}}